<?xml version="1.0" encoding="UTF-8"?>
<svg xmlns="http://www.w3.org/2000/svg" version="1.1" viewBox="0 0 298.27 247.18">
  <defs>
    <style>
      .cls-1 {
        letter-spacing: 0em;
      }

      .cls-1, .cls-2, .cls-3 {
        font-family: Helvetica-Oblique, Helvetica;
        font-style: oblique;
      }

      .cls-4, .cls-5, .cls-6, .cls-7, .cls-8 {
        fill: none;
      }

      .cls-9 {
        fill: #969696;
      }

      .cls-3, .cls-10, .cls-11 {
        fill: #c1c3c7;
      }

      .cls-3, .cls-11 {
        font-size: 13px;
      }

      .cls-5 {
        stroke: #c1c3c7;
      }

      .cls-5, .cls-6, .cls-7, .cls-8, .cls-12 {
        stroke-miterlimit: 10;
      }

      .cls-6 {
        stroke: #0086ff;
        stroke-width: 1.5px;
      }

      .cls-13 {
        font-family: Helvetica, Helvetica;
      }

      .cls-14 {
        fill: #bcbcbc;
      }

      .cls-7, .cls-8, .cls-12 {
        stroke: #000;
      }

      .cls-7, .cls-12 {
        stroke-width: .75px;
      }

      .cls-12 {
        fill: red;
      }

      .cls-15 {
        fill: #0086ff;
      }
    </style>
  </defs>
  <!-- Generator: Adobe Illustrator 28.7.5, SVG Export Plug-In . SVG Version: 1.2.0 Build 176)  -->
  <g>
    <g id="Layer_1">
      <g>
        <line class="cls-5" x1="16.89" y1="229.13" x2="252.26" y2="95.63"/>
        <polygon class="cls-10" points="258.4 92.15 251.75 100.59 251.8 95.89 247.74 93.52 258.4 92.15"/>
      </g>
      <g>
        <line class="cls-5" x1="247.01" y1="229.13" x2="17.5" y2="98.03"/>
        <polygon class="cls-10" points="11.37 94.53 22.02 95.93 17.96 98.29 17.99 102.99 11.37 94.53"/>
      </g>
      <g>
        <line class="cls-5" x1="132.2" y1="244.91" x2="132.2" y2="24.95"/>
        <polygon class="cls-10" points="132.2 17.89 136.26 27.84 132.2 25.48 128.13 27.84 132.2 17.89"/>
      </g>
      <path class="cls-8" d="M100.27,154.72"/>
      <polygon class="cls-9" points="37.73 208.12 37.73 224.89 49.03 231.48 225.47 131.25 225.53 114.38 212.63 107.31 37.73 208.12"/>
      <polygon class="cls-14" points="37.73 224.89 49.03 231.48 49.03 214.69 37.73 208.12 37.73 224.89"/>
      <polygon class="cls-7" points="37.73 208.12 37.73 224.89 49.03 231.48 225.47 131.25 225.53 114.38 212.63 107.31 37.73 208.12"/>
      <polyline class="cls-7" points="49.03 231.48 49.03 214.69 37.73 208.12"/>
      <line class="cls-12" x1="49.03" y1="214.69" x2="225.53" y2="114.38"/>
      <path class="cls-12" d="M34.92,209.87"/>
      <text class="cls-3" transform="translate(262.9 92.15)"><tspan x="0" y="0">x</tspan></text>
      <text class="cls-3" transform="translate(128.01 11.16)"><tspan x="0" y="0">z</tspan></text>
      <text class="cls-3" transform="translate(0 94.53)"><tspan x="0" y="0">y</tspan></text>
      <g>
        <path class="cls-6" d="M144.33,111.3c1.68,2.09,2.87,4.42,2.87,6.56,0,6.9-6.72,12.5-15,12.5s-15-5.6-15-12.5c0-4.3,2.6-8.09,6.57-10.34"/>
        <polygon class="cls-15" points="138.29 106.13 143.55 117.02 144.63 111.84 149.67 110.22 138.29 106.13"/>
      </g>
      <path class="cls-4" d="M140.51,106.13"/>
      <path class="cls-4" d="M123.77,106.19"/>
      <g>
        <path class="cls-6" d="M252.76,216.5c-2.22-1.51-4.64-2.5-6.77-2.32-6.88.57-11.91,7.72-11.23,15.97.68,8.26,6.81,14.49,13.69,13.93,4.28-.35,7.85-3.26,9.77-7.39"/>
        <polygon class="cls-15" points="258.4 222.09 253.39 211.09 252.19 216.24 247.12 217.75 258.4 222.09"/>
      </g>
      <g>
        <path class="cls-6" d="M10.67,241.77c2.22,1.51,4.64,2.5,6.77,2.32,6.88-.57,11.91-7.72,11.23-15.97-.68-8.26-6.81-14.49-13.69-13.93-4.28.35-7.85,3.26-9.77,7.39"/>
        <polygon class="cls-15" points="5.03 236.17 10.04 247.18 11.24 242.03 16.31 240.52 5.03 236.17"/>
      </g>
      <text class="cls-11" transform="translate(142.92 74.83)"><tspan class="cls-13" x="0" y="0">Kääntö,</tspan><tspan class="cls-2" x="44.81" y="0"> </tspan><tspan class="cls-2"><tspan x="0" y="15.6">yaw</tspan></tspan></text>
      <text class="cls-11" transform="translate(.18 184.94)"><tspan class="cls-13" x="0" y="0">Kallistus,</tspan><tspan class="cls-1" x="52.02" y="0"> </tspan><tspan class="cls-2"><tspan x="0" y="15.6">roll</tspan></tspan></text>
      <text class="cls-11" transform="translate(234.69 177.95)"><tspan class="cls-13" x="0" y="0">Nyökkäys,</tspan><tspan class="cls-2" x="59.96" y="0"> </tspan><tspan class="cls-2"><tspan x="0" y="15.6">pitch</tspan></tspan></text>
    </g>
  </g>
</svg>